<svg xmlns="http://www.w3.org/2000/svg" viewBox="0 0 1561.81 1559.49"><title>jetpack-builder</title><path d="M1025.4,1006.89v304h186.9V987.59H1044.8a19.33,19.33,0,0,0-19.4,19.3Z" fill="none"/><path d="M937.2,798.89v-66.5H732.7c1.4,2.4,2.8,4.9,4,7.5a97.56,97.56,0,0,1-45.9,129.8l-1.1.5-1.7.8a91.86,91.86,0,0,1-12.4,4.5l-1.9.5-2.2.6c-1.1.3-2.3.5-3.4.8-2-3.6-2.6-12.7-3-17.9-.6-8.5-.9-13.2-4.3-14.6-5.4-2.2-12.5,3.4-17.3,13.7a45.76,45.76,0,0,0-4.3,20.3,97.5,97.5,0,0,1-87.4-106.6,94.93,94.93,0,0,1,9-32.2c1.2-2.6,2.6-5,4-7.5H352.1v345.3c30.7.6,91.1-10.7,91.9,17.8V992.79H839.1v122.1c31.5-.2,63.2,7.3,94.6,2.1a2.5,2.5,0,0,1,3,1.9c3.1,18.4,15.2,184.7,16.5,201.2,1.1,15,3.6,29.7.5,44.6a2.67,2.67,0,0,1-2.5,1.8c-11.3.6-22.6,2.1-33.9,2-10.6,0-50.9-1.1-53.8-2.1-3.6-1.3-20.9,2.9-29.8,3.5-8.5.5-42.1,2.8-50.4,3-10.4.2-21.3-.1-21.6-10.1-.1-5.6-5.4-46-4.6-51.8h-310c0,1.3-64.2-.1-95-.4v91.1H1276V798.89Zm275.1,511.9H1025.4v-304a19.31,19.31,0,0,1,19.3-19.3h167.6Z" fill="#f3f6f8"/><path d="M736.6,739.79c-1.2-2.6-2.6-5-4-7.5a66.49,66.49,0,0,0-3.6-5.6,97.41,97.41,0,0,0-160.8,0c-1.3,1.8-2.4,3.7-3.6,5.7-1.4,2.4-2.8,4.9-4,7.5A97.34,97.34,0,0,0,639,878.69a44.71,44.71,0,0,1,4.3-20.3c4.8-10.2,11.9-15.8,17.3-13.7,3.4,1.4,3.8,6.1,4.3,14.6.4,5.2,1,14.3,3,17.9a33.83,33.83,0,0,0,3.4-.8c.8-.2,1.5-.4,2.2-.6l1.9-.5a91.86,91.86,0,0,0,12.4-4.5l1.7-.8,1.1-.5a97.17,97.17,0,0,0,46-129.7Z" fill="#c2f4ff"/><path d="M1212,988.29H1044.5a19.31,19.31,0,0,0-19.3,19.3h0v304H1212Z" fill="none"/><polygon points="937 655.39 937 733.09 937 799.59 1275.6 799.59 1327.7 799.59 1327.7 655.39 937 655.39" fill="#00be28"/><path d="M379.3,1220l52-.4,3.8,41.3-42.4-3.8S375.9,1253.69,379.3,1220Z" fill="#f3f6f8"/><path d="M368.4,739.79H351.6a6.7,6.7,0,0,1-6.7-6.7v-16.8a6.7,6.7,0,1,1,13.4,0h0v10.1h10.1a6.7,6.7,0,1,1,0,13.4Z" fill="#e1eff9"/><path d="M351.6,688.89a6.7,6.7,0,0,1-6.7-6.7V648a6.7,6.7,0,1,1,13.4,0v34.2a6.7,6.7,0,0,1-6.7,6.7Zm9.1-66.5a6.7,6.7,0,0,1-6.7-6.7,7,7,0,0,1,1.1-3.7,62,62,0,0,1,29.4-23.6,6.74,6.74,0,0,1,4.8,12.6h0a48.59,48.59,0,0,0-23,18.5A6.69,6.69,0,0,1,360.7,622.39Zm905.7-.2a6.8,6.8,0,0,1-5.6-3,48.64,48.64,0,0,0-23.1-18.4,6.74,6.74,0,0,1,4.8-12.6,61,61,0,0,1,29.5,23.5,6.73,6.73,0,0,1-1.8,9.3,6.36,6.36,0,0,1-3.8,1.2Zm-60-24.5h-34.2a6.7,6.7,0,0,1,0-13.4h34.2a6.7,6.7,0,0,1,0,13.4Zm-68.3,0h-34.2a6.7,6.7,0,0,1,0-13.4H1138a6.7,6.7,0,0,1,.1,13.4Zm-68.3,0h-34.2a6.7,6.7,0,1,1,0-13.4h34.2a6.7,6.7,0,0,1,0,13.4Zm-68.4,0H967.2a6.7,6.7,0,0,1,0-13.4h34.2a6.7,6.7,0,0,1,0,13.4Zm-68.3,0H898.9a6.7,6.7,0,1,1,0-13.4H933a6.7,6.7,0,0,1,.1,13.4Zm-68.3,0H830.6a6.7,6.7,0,0,1,0-13.4h34.2a6.7,6.7,0,0,1,0,13.4Zm-68.3,0H762.3a6.7,6.7,0,1,1,0-13.4h34.2a6.7,6.7,0,0,1,0,13.4Zm-68.4,0H694a6.7,6.7,0,0,1,0-13.4h34.2a6.7,6.7,0,0,1,6.7,6.7A6.85,6.85,0,0,1,728.1,597.69Zm-68.3,0H625.6a6.7,6.7,0,0,1,0-13.4h34.2a6.7,6.7,0,0,1,0,13.4Zm-68.3,0H557.3a6.7,6.7,0,1,1,0-13.4h34.2a6.7,6.7,0,0,1,0,13.4Zm-68.3,0H489a6.7,6.7,0,1,1,0-13.4h34.2a6.7,6.7,0,0,1,0,13.4Zm-68.4,0H420.6a6.7,6.7,0,0,1,0-13.4h34.2a6.7,6.7,0,0,1,0,13.4Z" fill="#e1eff9"/><path d="M838.9,1367.39s-4.8,103.7-20.4,167.1l-91.6,1.2s-7.4-4.7,2.4-9.6c10.2-5.1,37.6-10.6,40.7-16.8,6-12,3.6-135.2,3.6-135.2" fill="#a6c1d1"/><path d="M874.5,1370.59s4.8,96.9,20.4,160.4l80.1,1.2s7.4-4.7-2.4-9.6c-10.2-5.1-37.6-10.6-40.7-16.8-6-12,11.7-142,11.7-142" fill="#a6c1d1"/><path d="M671.6,880.89s2.1,1.8,2.9-5.2a79.28,79.28,0,0,1-9.4,2.1C666.5,880.49,668.5,881.89,671.6,880.89Z" fill="none"/><path d="M671.6,880.89c-3.1,1-5.1-.4-6.5-3.1a99.93,99.93,0,0,1-16.4,1.4c-2,0-3.9-.1-5.9-.2.7,10.9,6.4,22.2,21.3,30l10.9,5.9,18.2-11.2c1.9-15.2-1.3-26.1-4.7-33a97.06,97.06,0,0,1-14,5C673.7,882.69,671.6,880.89,671.6,880.89Z" fill="#a6c1d1"/><path d="M665.1,877.79c-4.3-8.4-2.3-29.4-5.5-30.7-5.9-2.4-18,14.1-16.8,31.9,1.9.1,3.9.2,5.9.2A99.93,99.93,0,0,0,665.1,877.79Z" fill="#a6c1d1"/><path d="M912.8,1224.69a3.35,3.35,0,0,1-3.3-3.4,3.25,3.25,0,0,1,2.9-3.2l37.1-4a3.39,3.39,0,1,1,1.1,6.7h-.4l-37.1,4Z" fill="#00a9de"/><path d="M938.5,1244.59a24.25,24.25,0,0,1-17.2-6.6,18.77,18.77,0,0,1-6-14.8,3.24,3.24,0,0,1,3.3-3.2h.3a3.42,3.42,0,0,1,3.2,3.5h0a12.55,12.55,0,0,0,4,9.6,18,18,0,0,0,14.3,4.7l6.5-1.8a3.36,3.36,0,0,1,1.7,6.5h0l-7,1.9C940.4,1244.49,939.5,1244.59,938.5,1244.59Z" fill="#00a9de"/><path d="M753.6,1022.89a3.37,3.37,0,0,1-3.4-3.4,3.53,3.53,0,0,1,2-3.1l29-13a3.33,3.33,0,0,1,3.1,5.9c-.1.1-.2.1-.3.2l-29,13A2.5,2.5,0,0,1,753.6,1022.89Z" fill="#004f82"/><path d="M789.7,823.79c.2,4,1.3,7,2.7,7.8.9.6,2.4-.1,3.5-.8a43.61,43.61,0,0,1-.3-5.1Z" fill="none"/><path d="M793.5,812.49a10.2,10.2,0,0,0-3,4.4l5.2,1.8c.2-2.2.4-4.3.8-6.4a3.59,3.59,0,0,1-1-.7A5.15,5.15,0,0,0,793.5,812.49Z" fill="none"/><path d="M823.7,858.39a20.27,20.27,0,0,1-10.2-17.2l1-9.1-12.1-4a70.13,70.13,0,0,0,1.2,9.2c3.3,15.8,7.2,28.2,24.7,31a3.29,3.29,0,0,1,2.8,2.9l2.2,18.4a3.36,3.36,0,0,1-2.9,3.7H830a3.23,3.23,0,0,1-2.1-.8V901l42,2.2v-37.6a27.76,27.76,0,0,1-5.7,2.1C846.5,871.89,832.8,863.49,823.7,858.39Z" fill="#a6c1d1"/><path d="M859.8,832.19l-10.8-29s-14.3-8-27.8-7.2C828.1,812.09,842.3,827.79,859.8,832.19Z" fill="#a6c1d1"/><path d="M804,808.89a60.89,60.89,0,0,0-1.7,12l12.9,4.3,1.5-14.5C816.8,810.69,809,811.69,804,808.89Z" fill="#a6c1d1"/><path d="M885.2,830.09a40.27,40.27,0,0,1-25.4,2c-17.5-4.4-31.6-20.1-38.5-36.2-3.8-9-5.4-18.2-4.1-25.6-6.7,5.2-12.4,13.7-16.6,26.6a26.81,26.81,0,0,0-.7,2.7c-.7,1.8-1.3,3.7-1.9,5.6a6.87,6.87,0,0,0-4-.3c-4.5,1-9.8,5.6-10.8,13.7-.8,6.5.2,15.3,5.6,18.6a8.21,8.21,0,0,0,4.3,1.2,11.56,11.56,0,0,0,3.7-.7c.1.3.1.6.2.8,3.4,16.4,8.2,31.5,27.7,35.8l1.9,16a3.35,3.35,0,0,0,3.3,3h.4a3.29,3.29,0,0,0,2.9-3.7l-2.2-18.4a3.29,3.29,0,0,0-2.8-2.9c-17.4-2.8-21.4-15.2-24.7-31a70.13,70.13,0,0,1-1.2-9.2l12.1,4-1,9.1a20.15,20.15,0,0,0,10.2,17.2c9.1,5.1,22.8,13.5,40.3,9.4a27.76,27.76,0,0,0,5.7-2.1c11.9-6.1,18.6-21.5,20.7-38.3A22.57,22.57,0,0,1,885.2,830.09Zm-92.8,1.5c-1.3-.8-2.5-3.8-2.7-7.8l5.9,1.9a43.61,43.61,0,0,0,.3,5.1c-1.2.7-2.6,1.4-3.5.8Zm3.3-12.9-5.2-1.8a9.65,9.65,0,0,1,3-4.4,5.38,5.38,0,0,1,2-1,3.59,3.59,0,0,0,1,.7c-.4,2.2-.6,4.4-.8,6.5Zm19.5,6.5-12.9-4.3a60.89,60.89,0,0,1,1.7-12c5,2.8,12.8,1.8,12.8,1.8Z" fill="#004f84"/><path d="M827.5,756.49c-5.9,2.6-9.2,7.6-10.3,13.9-4.8,26.6,28.3,76.1,68,59.7a31.56,31.56,0,0,0,5.2-2.6C929.9,804.19,875.3,735.59,827.5,756.49Z" fill="#74dcfc"/><path d="M275.4,1206.89H425.6a8.49,8.49,0,0,0,8.5-8.5v-.4l-4.3-99.9a6.47,6.47,0,0,0-6.4-6.2h-150l2,101.9" fill="#86a6bd" opacity="0.26" style="isolation:isolate"/><path d="M434.4,1261c-2.8-16-4.1-32-5.4-48.1l-.8-12.1-.4-6-.1-1.5v-2a8.73,8.73,0,0,1,1.9-4.8,10.73,10.73,0,0,1,8-3.8l6.1-.1,12.1-.1,12.1.1,6.1.1a10.73,10.73,0,0,1,8,3.8,8.16,8.16,0,0,1,1.9,4.7l.1,3.1.3,6,.5,12.1c.6,16.1,1.1,32.2.8,48.3a1.42,1.42,0,0,1-1.4,1.3,1.38,1.38,0,0,1-1.3-1.1c-2.1-16-3.4-32.1-4.7-48.1l-.9-12-.4-6-.2-2.9a1.23,1.23,0,0,0-.4-.8,3.86,3.86,0,0,0-2.7-1.1l-5.9.1-12.1.1-12.1-.1h-5.9a3.86,3.86,0,0,0-2.7,1.1,2.51,2.51,0,0,0-.4.7v1l.1,1.5.3,6,.6,12.1c.4,16.1,1,32.2,0,48.4a.66.66,0,0,1-.7.6c-.1,0-.3-.2-.4-.5Z" fill="#c8d7e2"/><polygon points="471.8 1242.19 469.3 1197.89 443 1197.89 445.5 1242.09 471.8 1242.19" fill="#f3f6f8"/><line x1="392.7" y1="1286.09" x2="429" y2="1286.09" fill="none"/><path d="M392.7,1285.39a20.9,20.9,0,0,1,9.1-2.7,91,91,0,0,1,9.1-.4c3,.1,6,.3,9.1.5a36.19,36.19,0,0,1,9.1,2,1.48,1.48,0,0,1,.8,1.9,1.09,1.09,0,0,1-.8.8,35.26,35.26,0,0,1-9.1,2c-3,.2-6,.4-9.1.5s-6-.1-9.1-.4a20.9,20.9,0,0,1-9.1-2.7.8.8,0,0,1-.3-1.1C392.5,1285.69,392.6,1285.49,392.7,1285.39Z" fill="#e9eff4"/><path d="M424.4,1255.69c-17.2-1.2-34.4-1.6-51.7-1.9l-25.8-.3-12.9-.1-6.5-.1a15.38,15.38,0,0,1-5.2-.9,16.78,16.78,0,0,1-11.5-16.1l-.2-17.5c-2.3-.1-4.6-.2-6.9-.2l-.2,17.7a24.15,24.15,0,0,0,16.3,23.3,27.33,27.33,0,0,0,7.5,1.2l6.5-.1,12.9-.1,25.8-.3c17.2-.3,34.4-.7,51.7-1.9a1.36,1.36,0,0,0,1.2-1.5,1.11,1.11,0,0,0-1-1.2Z" fill="#e9eff4"/><path d="M399.5,1255.69c-8.6-1.2-15.3-7.6-16.6-15.3-.5-3.4-.1-8.6-.1-13l.2-9.8h-7.5l.2,9.8c.3,4.7-.3,8.8.8,14.4a22.34,22.34,0,0,0,8.6,12.8,20.87,20.87,0,0,0,14.3,3.8,1.49,1.49,0,0,0,1.2-1.2A1.27,1.27,0,0,0,399.5,1255.69Z" fill="#e9eff4"/><path d="M432,1215.69a21,21,0,0,1-5.6.7h-5.3c-28.2.1-56.5.4-84.7.7-30.5.5-60.9,1.1-91.4,2.1a.7.7,0,0,0,0,1.4c30.5,1,60.9,1.6,91.4,2.1,30.5.3,60.9.7,91.4.7h.1a1.27,1.27,0,0,0,.6-.1c1.1-.1,2.2-.2,3.4-.4Z" fill="#c8d7e2"/><path d="M450.3,1178.49l-2.4-61.2-.6-15.3c-.1-2.7-.1-4.8-.4-8a21.74,21.74,0,0,0-18.2-18.5,31.2,31.2,0,0,0-6.1-.3c-.2,0-.5-.1-.7-.1l-159,.6-9.9.1a15.86,15.86,0,0,0-11.2,3.9,15.67,15.67,0,0,0-5.4,10.7c-.1,3.9.1,6.8.2,10.2l1,39.7c.6,26.5,1.5,53,2.5,79.4a1.3,1.3,0,1,0,2.6,0h0c.1-26.5.1-53-.2-79.5l-.3-39.7c0-3.2-.1-6.9,0-9.6a9.59,9.59,0,0,1,3.5-6.5,9.44,9.44,0,0,1,7.2-2.2h3.9l1.6,55c.5,19.4,1.4,38.7,2.2,58.1a1.35,1.35,0,1,0,2.7-.1h0c0-19.4.1-38.8-.2-58.1l-.6-54.8h.3l155.3.5.1-.1h2.1a54.57,54.57,0,0,1,7,.2,14.47,14.47,0,0,1,9.8,6.5,14,14,0,0,1,2,5.6c.2,1.8.2,4.9.4,7.3l.7,15.3,1.4,30.6,1.4,30.6.3,6.1a42.13,42.13,0,0,1,7.1.2Z" fill="#c8d7e2"/><path d="M434.4,1261c-2.8-16-4.1-32-5.4-48.1l-.8-12.1-.4-6-.1-1.5v-2a8.73,8.73,0,0,1,1.9-4.8,10.73,10.73,0,0,1,8-3.8l6.1-.1,12.1-.1,12.1.1,6.1.1a10.73,10.73,0,0,1,8,3.8,8.16,8.16,0,0,1,1.9,4.7l.1,3.1.3,6,.5,12.1c.6,16.1,1.1,32.2.8,48.3a1.42,1.42,0,0,1-1.4,1.3,1.38,1.38,0,0,1-1.3-1.1c-2.1-16-3.4-32.1-4.7-48.1l-.9-12-.4-6-.2-2.9a1.23,1.23,0,0,0-.4-.8,3.86,3.86,0,0,0-2.7-1.1l-5.9.1-12.1.1-12.1-.1h-5.9a3.86,3.86,0,0,0-2.7,1.1,2.51,2.51,0,0,0-.4.7v1l.1,1.5.3,6,.6,12.1c.4,16.1,1,32.2,0,48.4a.66.66,0,0,1-.7.6c-.1,0-.3-.2-.4-.5Z" fill="#c8d7e2"/><polygon points="471.8 1242.19 469.3 1197.89 443 1197.89 445.5 1242.09 471.8 1242.19" fill="#f3f6f8"/><line x1="392.7" y1="1286.09" x2="429" y2="1286.09" fill="none"/><path d="M392.7,1285.39a20.9,20.9,0,0,1,9.1-2.7,91,91,0,0,1,9.1-.4c3,.1,6,.3,9.1.5a36.19,36.19,0,0,1,9.1,2,1.48,1.48,0,0,1,.8,1.9,1.09,1.09,0,0,1-.8.8,35.26,35.26,0,0,1-9.1,2c-3,.2-6,.4-9.1.5s-6-.1-9.1-.4a20.9,20.9,0,0,1-9.1-2.7.8.8,0,0,1-.3-1.1C392.5,1285.69,392.6,1285.49,392.7,1285.39Z" fill="#e9eff4"/><path d="M2.6,1538.69c129.69-3.7,259.48-4.5,389.17-5.4l389.18-.9c259.48.8,519,.4,778.35,4.9a2.65,2.65,0,0,1,0,5.3c-259.48,4.6-519,4.1-778.35,4.9l-389.18-.9c-129.69-.9-259.48-1.7-389.17-5.4a1.32,1.32,0,0,1-1.3-1.3,1.31,1.31,0,0,1,1.3-1.2Z" fill="#e9eff4"/><path d="M774.8,1501.39a3.55,3.55,0,0,1-3.3-4.4c4.9-16,2.8-48.6.7-80-1-15.5-2-30.1-2.1-42.8a3.35,3.35,0,0,1,3.3-3.4h0a3.49,3.49,0,0,1,3.4,3.3c.1,12.5,1.1,27.1,2.1,42.5,2.1,32.1,4.2,65.2-1,82.4A3.13,3.13,0,0,1,774.8,1501.39Z" fill="#004f82"/><path d="M894.9,1534.29a3.26,3.26,0,0,1-3.3-2.9c-.1-.8-12.1-81.2-20.4-160.5a3.39,3.39,0,1,1,6.7-1.1v.4c8.2,79.2,20.2,159.4,20.3,160.2a3.36,3.36,0,0,1-2.8,3.8A1.09,1.09,0,0,1,894.9,1534.29Z" fill="#004f82"/><path d="M1268.9,654.69v-6.9a6.7,6.7,0,0,1,13.4,0h0v7.4" fill="#e1eff9"/><path d="M1041.3,799.69V798a25.81,25.81,0,0,1-8.9,4.5s7.5-27.3-.4-29.2-38.4,52.1-38.4,52.1l11,26.4s11.8-10.6,49.9-30.1c8.6-8.1,13.7-15.6,16.3-22Z" fill="#a6c1d1"/><path d="M1025.1,840a3.35,3.35,0,0,1-3.2-3.5,3.44,3.44,0,0,1,3.2-3.2c3.8-.1,30-13.8,42.8-38.2a3.38,3.38,0,1,1,6.1,2.9.35.35,0,0,1-.1.2C1060.5,823.59,1032,840,1025.1,840Z" fill="#004f82"/><path d="M1004.5,818.39a3.4,3.4,0,0,1-2.2-5.9c2.8-2.4,7.3-11.6,11.2-19.6,8.1-16.3,11.8-23,16.5-23.6a4.87,4.87,0,0,1,4.4,1.8c4.6,5.4,3.5,18.5,2.2,26.4,2.8-1.2,6-3.1,7.8-5.5a3.33,3.33,0,1,1,5.6,3.6c-.1.1-.1.2-.2.3-5.2,7.3-16.4,9.8-16.8,9.9a3.4,3.4,0,0,1-4-2.6,3.3,3.3,0,0,1,0-1.4c1.7-7.7,2.9-20,1.1-24.9-2.7,3.2-7.4,12.5-10.6,19-4.7,9.4-9.1,18.3-12.8,21.7A3.49,3.49,0,0,1,1004.5,818.39Z" fill="#004f82"/><path d="M668.9,878.49c.1.1.4.3,1.4,0,.6-.2.9-.9,1.1-2-1.1.3-2.3.5-3.4.8A3.15,3.15,0,0,0,668.9,878.49Z" fill="none"/><path d="M659.6,847.09c3.1,1.3,1.2,22.3,5.5,30.7.9-.2,1.9-.3,2.8-.5-2-3.6-2.6-12.7-3-17.9-.6-8.5-.9-13.2-4.3-14.6-5.4-2.2-12.5,3.4-17.3,13.7a45.76,45.76,0,0,0-4.3,20.3l3.7.3C641.6,861.19,653.7,844.69,659.6,847.09Z" fill="none"/><path d="M668.9,878.49c.1.1.4.3,1.4,0,.6-.2.9-.9,1.1-2-1.1.3-2.3.5-3.4.8A3.15,3.15,0,0,0,668.9,878.49Z" fill="none"/><path d="M668.9,878.49c.1.1.4.3,1.4,0,.6-.2.9-.9,1.1-2-1.1.3-2.3.5-3.4.8A3.15,3.15,0,0,0,668.9,878.49Z" fill="none"/><path d="M671.4,876.49l2.2-.6C672.8,876.09,672.1,876.29,671.4,876.49Z" fill="none"/><path d="M690.8,869.59l-1.1.5Z" fill="none"/><path d="M434.3,726.39h-33a6.7,6.7,0,0,0,0,13.4h33a6.7,6.7,0,0,0,0-13.4Z" fill="#e1eff9"/><path d="M500.3,726.39h-33a6.7,6.7,0,0,0,0,13.4h33a6.7,6.7,0,0,0,0-13.4Z" fill="#e1eff9"/><path d="M830.1,726.39h-33a6.7,6.7,0,0,0,0,13.4h33a6.7,6.7,0,0,0,0-13.4Z" fill="#e1eff9"/><path d="M929,726.39a6.7,6.7,0,0,0,0,13.4h8v-13.4Z" fill="#e1eff9"/><path d="M896,720.79H863a6.7,6.7,0,0,0,0,13.4h33a6.7,6.7,0,0,0,0-13.4Z" fill="#e1eff9"/><path d="M566.2,726.39h-33a6.7,6.7,0,0,0,0,13.4h27.4a89.44,89.44,0,0,1,7.6-13.1A6.45,6.45,0,0,0,566.2,726.39Z" fill="#e1eff9"/><path d="M764.1,726.39h-33a7.61,7.61,0,0,0-2.1.3,101.27,101.27,0,0,1,7.6,13.1h27.5a6.7,6.7,0,0,0,0-13.4Z" fill="#e1eff9"/><path d="M668.9,878.49c.1.1.4.3,1.4,0,.6-.2.9-.9,1.1-2-1.1.3-2.3.5-3.4.8A3.15,3.15,0,0,0,668.9,878.49Z" fill="none"/><path d="M673.6,875.89l-2.2.6c-.2,1-.5,1.8-1.1,2-.9.3-1.2.1-1.4,0a2.94,2.94,0,0,1-1-1.2c-2-3.6-2.6-12.7-3-17.9-.6-8.5-.9-13.2-4.3-14.6-5.4-2.2-12.5,3.4-17.3,13.7a45.76,45.76,0,0,0-4.3,20.3c.4,12.5,6.6,25.4,23.3,34.1a4.19,4.19,0,0,0,1.6.4,3.34,3.34,0,0,0,1.5-6.3c-23.9-12.5-20.4-32.8-17.8-41,2.9-9,7.7-13.8,9.8-14.7q.6,4.35.9,8.7c.6,9.6,1.4,20.5,6.9,24.2a8,8,0,0,0,7.2.8c4.9-1.6,5.9-5.4,5.8-10.2-.6.2-1.6.5-2.6.8l-1,.3Z" fill="#004f82"/><path d="M674.5,875.69l1-.3-1.9.5Z" fill="#004f82"/><path d="M688.5,870.59l-.6.3c-1.2.6-2.6,1.1-3.3,1.4a58.31,58.31,0,0,1,4.6,24,3.35,3.35,0,0,0,3.3,3.4h0a3.49,3.49,0,0,0,3.4-3.3,66.68,66.68,0,0,0-5.2-26.8l-1.1.5Z" fill="#004f82"/><path d="M689.6,870.09l-1.7.8.6-.3Z" fill="#004f82"/><path d="M790.1,1377.79c-11.4,0-21.7-1.4-27.2-5.6a11.23,11.23,0,0,1-4.7-8.6c-.2-3-.6-7.4-1-12.9-3-34.1-10-114,4.4-204.9a3.39,3.39,0,0,1,3.9-2.7,3.34,3.34,0,0,1,2.7,3.7c-14.2,90-7.2,169.3-4.2,203.2.5,5.7.9,10.1,1.1,13.1a4.69,4.69,0,0,0,2.1,3.6c11.6,8.9,57.9,1.6,74.8-1.9a3.39,3.39,0,0,1,3.9,2.8,3.34,3.34,0,0,1-2.5,3.8C838.9,1372.39,812.3,1377.79,790.1,1377.79Z" fill="#00a9de"/><path d="M886.2,1372.79c-12.4,0-22.9-1.1-27.6-4.2-10.4-6.9-8.4-101.5-7-141.8a3.22,3.22,0,0,1,3.1-3.3h.4a3.29,3.29,0,0,1,3.2,3.5c-2.1,62.3-1.1,130.2,4.2,136.2,9.2,6.1,58.2,1.8,88.9-2.6l-5.8-102.3a3.35,3.35,0,0,1,3.2-3.5,3.16,3.16,0,0,1,3.5,2.8v.3l6,105.3a3.36,3.36,0,0,1-2.9,3.5C949.7,1367.59,913.4,1372.79,886.2,1372.79Z" fill="#00a9de"/><path d="M944.2,1206.39a3.29,3.29,0,0,1-3.3-3.1l-7.2-88.6a3.36,3.36,0,0,1,3.1-3.6,3.3,3.3,0,0,1,3.6,3.1l7.2,88.6a3.36,3.36,0,0,1-3.1,3.6Z" fill="#00a9de"/><path d="M1034,845.19l-32.3-33.5c-15.8,31.6-62.7,78.6-98.1,87.4-.8-.3-1.6-.6-2.5-1-11.4-4.2-76.5-8.6-92-2-10,4.2-16.9,7.5-21.5,11.8-30.7,24.1-50,44.9-50,44.9L700,894.19l-33.5,23.9s28.7,105.3,73,102.9a107.14,107.14,0,0,0,41.8-11.3l3.7,105.8,148.4-2.6-3.6-151.6C985,933.39,1034,845.19,1034,845.19Z" fill="#74dcfc"/><path d="M778.2,1119.39a3.35,3.35,0,0,1-3.2-3.5,3.44,3.44,0,0,1,3.2-3.2l158.8-1.6a3.25,3.25,0,0,1,3.4,3.1v.3a3.35,3.35,0,0,1-3.3,3.4l-158.9,1.5Z" fill="#004f82"/><path d="M753.6,1022.89a3.37,3.37,0,0,1-3.4-3.4,3.53,3.53,0,0,1,2-3.1l29-13a3.33,3.33,0,0,1,3.1,5.9c-.1.1-.2.1-.3.2l-29,13A2.5,2.5,0,0,1,753.6,1022.89Z" fill="#004f82"/><path d="M606.8,1313.89h-.5l-96.5,1.5-97.4,1-195.9.8a3.63,3.63,0,0,1-3.7-3.7h0l-.1-54.7a3.8,3.8,0,0,1,3.8-3.8h0l194.6.4,194.6,1.4h0a2,2,0,0,1,1.9,1.9h0Zm-1.9-.9v-.5l-1-53.8,1.9,1.9-194.6,1.5-194.6.4,3.8-3.8-.1,54.7-3.7-3.7,193.4.8,97.2,1Z" fill="#c8d7e2"/><line x1="216.5" y1="1293.29" x2="216.5" y2="1532.09" fill="none"/><path d="M217.2,1293.29c1.8,19.9,2.2,39.8,2.7,59.7l.4,59.7c-.4,39.8-.2,79.6-2.5,119.4a1.36,1.36,0,0,1-1.5,1.2,1.29,1.29,0,0,1-1.2-1.2c-2.3-39.8-2.1-79.6-2.4-119.4l.4-59.7c.5-19.9.8-39.8,2.7-59.7a.7.7,0,0,1,1.4,0Z" fill="#c8d7e2"/><line x1="605.8" y1="1313.49" x2="605.8" y2="1532.09" fill="none"/><path d="M606.5,1313.49c1.9,18.2,2.2,36.4,2.7,54.7l.4,54.7c-.4,36.4-.2,72.9-2.4,109.3a1.36,1.36,0,0,1-1.5,1.2,1.29,1.29,0,0,1-1.2-1.2c-2.3-36.4-2.1-72.9-2.5-109.3l.4-54.7c.5-18.2.9-36.4,2.7-54.7a.7.7,0,0,1,1.4,0Z" fill="#c8d7e2"/><circle cx="395.8" cy="283.93" r="135.55" fill="#00be28"/><polygon points="402.53 261.17 402.53 392.57 470.3 261.17 402.53 261.17" fill="#fff"/><polygon points="388.82 306.43 388.82 175.28 321.31 306.43 388.82 306.43" fill="#fff"/><path d="M610.25,373.43c-3.88-5.95-7.5-11.9-11.13-17.59,19.15-11.64,25.61-20.95,25.61-38.54V215.64h-22.5v-19.4h47.85V312.12C650.08,341.61,641.55,358.17,610.25,373.43Z"/><path d="M810.72,304.1c0,9.83,7,10.87,11.64,10.87s11.38-1.55,16.56-3.1V330a77,77,0,0,1-25.09,4.14c-12.42,0-26.91-4.65-26.91-26.38V254.44H773.73V236.07h13.19V208.91h23.8v27.16h30v18.37h-30Z"/><path d="M860.39,382.48V235.81h22.76v8.8c9.05-7,19.14-11.38,31.56-11.38,21.47,0,38.54,15,38.54,47.34,0,32.07-18.62,53.28-49.41,53.28a90.66,90.66,0,0,1-19.66-2.33v50.71H860.39ZM908.5,252.89c-7,0-15.78,3.36-24.06,10.6v49.93a86.71,86.71,0,0,0,17.85,1.81c16.82,0,26.39-10.61,26.39-32.85C928.68,261.94,921.69,252.89,908.5,252.89Z"/><path d="M1046.89,331.78h-22.24v-10.6h-.52c-7.76,5.95-17.33,12.41-31.56,12.41-12.42,0-25.87-9-25.87-27.42,0-24.57,21-29.23,35.7-31.3l21-2.84v-2.85c0-12.93-5.17-17.07-17.33-17.07a96.85,96.85,0,0,0-31.3,6.47l-2.07-19.14a119.59,119.59,0,0,1,36.48-6.21c23.28,0,38.28,9.31,38.28,37v61.56ZM1023.09,287l-19.66,3.11c-5.94.77-12.15,4.39-12.15,13.19,0,7.76,4.39,12.16,10.86,12.16,7,0,14.49-4.14,21-8.8Z"/><path d="M1145.19,328.68c-9.83,3.36-18.63,5.43-29.75,5.43-35.7,0-49.92-20.43-49.92-50.18,0-31.3,19.66-50.7,51.47-50.7,11.9,0,19.15,2.07,27.16,4.65v20.18c-7-2.59-17.07-5.43-26.9-5.43-14.48,0-26.9,7.76-26.9,30,0,24.58,12.42,32.08,28.2,32.08,7.5,0,15.78-1.55,26.9-5.95v19.92Z"/><path d="M1190.2,277.2c2.07-2.33,3.62-4.65,33.63-41.13h31l-38.8,45.53L1258.49,332h-31l-37-45.53V332h-23.8V196.24h23.8v81Z"/><path d="M755.88,328.68a112.38,112.38,0,0,1-35.44,5.43c-30.52,0-49.4-15.26-49.4-51,0-26.12,16-49.92,46.82-49.92,30.52,0,41.13,21.21,41.13,41.39,0,6.72-.52,10.34-.78,14.22H696.64c.52,21,12.42,25.87,30.27,25.87,9.83,0,18.62-2.33,28.71-5.95v19.92Zm-21.73-55.62c0-11.64-3.88-21.73-16.55-21.73-11.9,0-19.14,8.54-20.7,21.73Z"/><path d="M1544.49,17V1542.49H17V17H1544.49m17-17H0V1559.49H1561.49V0Z" fill="#00be28"/></svg>